<svg width="39" height="69" viewBox="0 0 39 69" fill="none" xmlns="http://www.w3.org/2000/svg">
<rect x="6" y="53.1001" width="7" height="24.5777" rx="3.5" transform="rotate(-51.914 6 53.1001)" fill="#462FC7"/>
<rect y="55" width="31" height="5" rx="2.5" fill="#3F3F3F"/>
<rect x="14" y="3" width="2" height="57" rx="1" fill="#3F3F3F"/>
<rect width="4" height="5" rx="1" transform="matrix(1 0 0 -1 13 5)" fill="#E2E2E2"/>
<rect x="11.9404" y="53.9438" width="7" height="22" rx="3.5" transform="rotate(-51.914 11.9404 53.9438)" fill="#4B2DF6"/>
<rect x="30.4801" y="46.8047" width="21.1697" height="4.5127" rx="2.25635" transform="rotate(-136.99 30.4801 46.8047)" fill="#9A9393"/>
<rect x="5" y="55" width="26" height="18" rx="4" transform="rotate(-90 5 55)" fill="#B9B9B9"/>
<rect x="36.6395" y="42.9258" width="21.1697" height="4.5127" rx="2.25635" transform="rotate(-151.99 36.6395 42.9258)" fill="#B9B9B9"/>
<g clip-path="url(#clip0_101_2957)">
<rect x="21" y="28" width="14" height="13" rx="4" transform="rotate(180 21 28)" fill="#ECF32A"/>
<rect x="20" y="21" width="3" height="3" rx="1.5" transform="rotate(180 20 21)" fill="white"/>
<rect x="20" y="20" width="1" height="1" rx="0.5" transform="rotate(180 20 20)" fill="#020202"/>
<path d="M21.4457 23.9746L12.1817 24.5811L17.1817 23.0811L21.1582 21.9998L21.4457 23.9746Z" fill="white"/>
</g>
<rect x="5" y="17" width="4" height="18" rx="2" transform="rotate(-90 5 17)" fill="#B9B9B9"/>
<rect x="7" y="15" width="4" height="14" rx="2" transform="rotate(-90 7 15)" fill="#B9B9B9"/>
<defs>
<clipPath id="clip0_101_2957">
<rect width="14" height="13" fill="white" transform="translate(7 15)"/>
</clipPath>
</defs>
</svg>
